<svg width="478" height="386" viewBox="0 0 478 386" fill="none" xmlns="http://www.w3.org/2000/svg">
<rect x="38.2051" width="625.795" height="386" rx="193" fill="url(#paint0_linear_67_22)"/>
<g clip-path="url(#clip0_67_22)">
<path d="M164.842 281.913L169.826 282.028L167.943 296.811L164.566 296.733L164.842 281.913Z" fill="#FFB6B6"/>
<path d="M176.153 303.598C176.153 303.197 175.938 302.833 175.607 302.674L171.888 300.884L169.352 295.153L169.314 289.38L164.088 288.782L163.333 292.459C163.333 292.459 164.889 292.233 162.968 293.858C161.047 295.483 161.972 298.662 161.972 298.662L161.553 304.604H165.011L165.196 300.909C167.886 302.021 168.545 304.604 168.545 304.604H175.248C175.748 304.604 176.153 304.154 176.153 303.598Z" fill="#2F2E41"/>
<path d="M172.142 282.076L177.126 282.191L175.243 296.973L171.866 296.896L172.142 282.076Z" fill="#FFB6B6"/>
<path d="M183.453 303.761C183.453 303.359 183.238 302.996 182.907 302.837L179.188 301.047L176.652 295.316L176.614 289.543L171.388 288.944L170.633 292.622C170.633 292.622 172.189 292.396 170.268 294.021C168.347 295.646 169.272 298.825 169.272 298.825L168.853 304.767H172.311L172.496 301.072C175.186 302.184 175.845 304.767 175.845 304.767H182.548C183.048 304.767 183.453 304.316 183.453 303.761Z" fill="#2F2E41"/>
<path d="M166.427 195.367L160.777 208.511C158.894 212.892 158.297 217.698 159.053 222.39L161.799 286.964H172.656L177.394 229.461L178.33 252.175L167.461 284.538H178.151L191.871 252.175L192.888 227.256L188.014 207.919L166.427 195.367Z" fill="#2F2E41"/>
<path d="M319.485 139.123V106.291C319.485 95.7968 310.754 87.2893 299.983 87.2893H228.593C217.822 87.2891 209.09 95.7965 209.09 106.291V286.41C209.09 296.905 217.822 305.412 228.592 305.412H299.982C310.753 305.412 319.484 296.905 319.484 286.41V162.494C320.163 162.494 320.713 161.958 320.713 161.297L320.714 140.32C320.714 139.659 320.164 139.123 319.485 139.123Z" fill="#3F3D56"/>
<path d="M315.823 104.711V287.375C304.426 286.693 310.223 301.325 301.037 301.785H228.182C220.013 301.786 213.389 295.335 213.386 287.375V104.711C213.389 96.7519 220.012 90.3009 228.181 90.3019H233.554C232.091 93.8079 243.9 94.9485 244.805 94.9497H282.118C286.002 94.9449 295.373 91.119 295.032 90.3019H301.034C309.2 90.3032 315.82 96.7522 315.823 104.709V104.711Z" fill="white"/>
<path d="M208.516 143.145C207.996 143.145 207.574 143.557 207.574 144.063V151.406C207.574 151.913 207.996 152.324 208.516 152.324C209.036 152.324 209.458 151.913 209.458 151.406V144.063C209.458 143.557 209.036 143.145 208.516 143.145Z" fill="#3F3D56"/>
<path d="M208.516 165.175C207.996 165.175 207.574 165.587 207.574 166.093V180.321C207.574 180.827 207.996 181.239 208.516 181.239C209.036 181.239 209.458 180.827 209.458 180.321V166.093C209.458 165.587 209.036 165.175 208.516 165.175Z" fill="#3F3D56"/>
<path d="M208.516 185.37C207.996 185.37 207.574 185.781 207.574 186.287V200.515C207.574 201.022 207.996 201.433 208.516 201.433C209.036 201.433 209.458 201.022 209.458 200.515V186.287C209.458 185.781 209.036 185.37 208.516 185.37Z" fill="#3F3D56"/>
<path d="M430.721 293.802L426.25 296.785L412.311 281.404L418.909 277L430.721 293.802Z" fill="#FFB6B6"/>
<path d="M415.336 303.927C415.357 304.248 415.802 305.034 415.989 305.3C416.563 306.116 417.707 306.325 418.545 305.765L432.389 296.524C432.961 296.143 433.107 295.382 432.715 294.825L432.32 294.263C432.32 294.263 431.818 292.118 428.946 290.979C428.946 290.979 428.339 293.778 423.926 292.974L422.195 292.127L419.406 299.841L416.57 302.281C415.949 302.815 415.282 303.122 415.336 303.927Z" fill="#2F2E41"/>
<path d="M397.761 301.723L392.342 301.722L389.764 281.357L396.397 282.162L397.761 301.723Z" fill="#FFB6B6"/>
<path d="M379.196 301.603C379.027 301.88 378.938 302.774 378.938 303.096C378.938 304.085 379.761 304.888 380.777 304.888H397.558C398.251 304.888 398.813 304.34 398.813 303.665V302.984C398.813 302.984 399.643 300.938 397.934 298.416C397.934 298.416 395.81 300.391 392.635 297.298L391.699 295.646L384.924 300.474L381.168 300.925C380.347 301.023 379.618 300.909 379.196 301.603Z" fill="#2F2E41"/>
<path d="M378.762 224.329L379.17 229.131L378.358 232.95L379.836 236.976L381.644 258.264L391.064 294.967L398.257 296.442L394.804 259.781L397.483 229.541L378.762 224.329Z" fill="#2F2E41"/>
<path d="M409.329 203.48L381.819 203.852L378.762 224.327L397.483 232.89L396.885 262.133L417.734 291.54L428.839 285.358L410.232 260.385L415.442 218.743L409.329 203.48Z" fill="#2F2E41"/>
<path d="M388.965 155.342L384.111 161.411L386.404 207.947L404.361 207.575L407.418 166.996L403.597 156.572L402.215 154.235L400.561 151.211L389.961 151.948L388.965 155.342Z" fill="#E6E6E6"/>
<path d="M381.798 184.121L382.768 193.631L381.576 204.576L380.085 207.543L376.678 219.347C376.678 219.347 373.201 224.509 380.842 224.88C388.484 225.251 413.531 222.836 413.531 222.836C413.531 222.836 416.654 222.761 415.293 216.396C413.095 212.714 414.512 207.527 414.512 207.527L411.621 197.148L412.385 187.469L417.734 162.153C412.984 158.516 407.662 155.912 401.878 154.149L396.811 167.13L389.268 155.266L386.403 157.313C382.538 158.301 379.136 159.819 376.446 162.153L381.798 184.121Z" fill="#2F2E41"/>
<path d="M291.106 161.541H237.183C233.486 161.537 230.491 158.618 230.487 155.017V132.432C230.491 128.831 233.486 125.912 237.183 125.908C254.389 121.263 272.435 121.699 291.106 125.908C294.802 125.913 297.797 128.831 297.801 132.432V155.017C297.797 158.618 294.802 161.536 291.106 161.541Z" fill="#F2F2F2"/>
<path d="M296.599 185.21H231.689C231.026 185.209 230.488 184.685 230.487 184.039V168.351C230.488 167.704 231.026 167.18 231.689 167.179H296.599C297.263 167.18 297.801 167.704 297.801 168.351V184.039C297.801 184.686 297.263 185.21 296.599 185.21V185.21ZM231.689 167.648C231.291 167.648 230.969 167.963 230.968 168.35V184.039C230.969 184.427 231.291 184.741 231.689 184.742H296.599C296.997 184.741 297.32 184.427 297.321 184.039V168.35C297.32 167.963 296.997 167.648 296.599 167.648H231.689Z" fill="#E6E6E6"/>
<path d="M251.763 172.914C251.298 172.923 250.93 173.298 250.94 173.751C250.949 174.19 251.312 174.544 251.763 174.554H291.43C291.895 174.571 292.286 174.218 292.303 173.765C292.321 173.313 291.959 172.932 291.495 172.915H251.763V172.914Z" fill="#E6E6E6"/>
<path d="M251.763 177.834C251.298 177.844 250.93 178.219 250.94 178.671C250.949 179.111 251.312 179.465 251.763 179.474H291.43C291.895 179.491 292.286 179.138 292.303 178.686C292.321 178.233 291.959 177.852 291.495 177.835H251.763V177.834Z" fill="#E6E6E6"/>
<path d="M240.62 179.475C242.479 179.475 243.986 178.006 243.986 176.195C243.986 174.384 242.479 172.915 240.62 172.915C238.762 172.915 237.255 174.384 237.255 176.195C237.255 178.006 238.762 179.475 240.62 179.475Z" fill="#E6E6E6"/>
<path d="M296.599 262.215H231.689C231.026 262.214 230.488 261.69 230.487 261.044V245.356C230.488 244.709 231.026 244.185 231.689 244.184H296.599C297.263 244.185 297.801 244.709 297.801 245.356V261.044C297.801 261.691 297.263 262.215 296.599 262.215V262.215ZM231.689 244.653C231.291 244.653 230.969 244.968 230.968 245.356V261.044C230.969 261.432 231.291 261.747 231.689 261.747L289.226 261.194C289.624 261.194 295.661 259 295.662 258.612L297.321 245.356C297.32 244.968 296.997 244.653 296.599 244.653H231.689Z" fill="#E6E6E6"/>
<path d="M251.763 252.258C251.298 252.248 250.914 252.607 250.904 253.06C250.894 253.513 251.263 253.888 251.728 253.897C251.739 253.898 251.751 253.898 251.763 253.897H291.43C291.895 253.915 292.286 253.562 292.303 253.109C292.321 252.657 291.959 252.276 291.495 252.258H251.763V252.258Z" fill="#E6E6E6"/>
<path d="M240.62 256.48C242.479 256.48 243.986 255.011 243.986 253.2C243.986 251.389 242.479 249.92 240.62 249.92C238.762 249.92 237.255 251.389 237.255 253.2C237.255 255.011 238.762 256.48 240.62 256.48Z" fill="#E6E6E6"/>
<path d="M296.599 229.754H231.689C231.026 229.753 230.488 229.229 230.487 228.583V212.895C230.488 212.248 231.026 211.724 231.689 211.723H296.599C297.263 211.724 297.801 212.248 297.801 212.895V228.583C297.801 229.23 297.263 229.754 296.599 229.754V229.754ZM231.689 212.192C231.291 212.192 230.969 212.507 230.968 212.895V228.583C230.969 228.971 231.291 229.286 231.689 229.286L289.226 228.733C289.624 228.733 295.661 226.539 295.662 226.151L297.321 212.895C297.32 212.507 296.997 212.192 296.599 212.192H231.689Z" fill="#E6E6E6"/>
<path d="M251.763 219.797C251.298 219.787 250.914 220.146 250.904 220.599C250.894 221.052 251.263 221.427 251.728 221.436C251.739 221.436 251.751 221.436 251.763 221.436H291.43C291.895 221.454 292.286 221.101 292.303 220.648C292.321 220.196 291.959 219.815 291.495 219.797H251.763V219.797Z" fill="#E6E6E6"/>
<path d="M240.62 224.019C242.479 224.019 243.986 222.55 243.986 220.739C243.986 218.928 242.479 217.459 240.62 217.459C238.762 217.459 237.255 218.928 237.255 220.739C237.255 222.55 238.762 224.019 240.62 224.019Z" fill="#E6E6E6"/>
<path d="M394.316 150.78C399.554 150.78 403.799 146.643 403.799 141.54C403.799 136.437 399.554 132.3 394.316 132.3C389.079 132.3 384.833 136.437 384.833 141.54C384.833 146.643 389.079 150.78 394.316 150.78Z" fill="#FFB6B6"/>
<path d="M401.281 149.132C401.803 149.219 402.417 147.985 403.003 146.784C404.229 144.269 405.009 142.67 405.068 140.41C405.119 138.483 404.57 138.989 404.035 134.706C403.859 133.294 401.383 133.297 400.879 132.626C400.027 131.493 401.333 131.026 399.215 130.345C395.247 129.07 393.453 131.051 390.933 131.221C390.869 131.225 389.62 132.416 388.922 132.477C387.7 132.585 385.937 132.4 385.146 130.585C384.407 128.888 383.917 133.847 384.578 134.46C385.139 134.981 386.106 136.289 386.131 136.384C386.159 136.491 383.83 133.978 383.442 135.014C383.162 135.759 384.043 139.594 384.754 139.739C385.349 139.859 386.804 137.949 386.475 138.732C385.714 140.549 390.292 141.709 395.772 138.061C395.966 137.932 395.783 138.138 396.461 139.739C397.316 141.757 397.508 141.867 397.494 142.423C397.461 143.626 396.534 143.98 396.805 144.771C397.024 145.411 397.883 145.907 398.526 145.777C399.253 145.631 399.378 144.755 399.904 144.771C400.354 144.784 400.889 145.446 400.937 146.113C401.037 147.519 398.901 147.906 398.526 149.803C398.315 150.874 400.801 149.053 401.281 149.132Z" fill="#2F2E41"/>
<path d="M422.742 222.991C422.783 221.956 422.569 220.927 422.118 219.99L423.095 209.206L417.814 208.904L417.392 219.877C416.893 220.791 416.627 221.809 416.615 222.845C416.549 225.435 417.867 227.568 419.558 227.609C421.249 227.65 422.675 225.584 422.741 222.994L422.742 222.991Z" fill="#FFB6B6"/>
<path d="M411.507 179.508L415.672 192.05L416.867 217.665L423.838 217.526L424.379 189.468C424.379 189.468 420.905 168.735 419.742 164.075C418.578 159.415 407.852 161.142 407.852 161.142L411.507 179.508Z" fill="#2F2E41"/>
<path d="M238.776 146.81C240.745 147.447 242.81 148.092 244.912 147.983C245.869 147.933 246.789 147.711 247.657 147.316C248.547 146.91 249.36 146.36 250.261 145.975C253.572 144.563 256.856 146.976 259.943 147.881C261.484 148.333 263.104 148.441 264.611 147.812C266.276 147.116 267.532 145.79 268.902 144.683C271.976 142.199 275.986 140.861 279.975 140.962C284.351 141.073 288.587 142.956 291.6 146.037C291.853 146.295 292.254 145.903 292.002 145.645C289.368 142.953 285.819 141.138 282.041 140.588C278.254 140.037 274.322 140.774 270.993 142.611C269.308 143.541 267.956 144.814 266.472 146.002C265.026 147.158 263.419 147.904 261.514 147.658C258.23 147.235 255.406 144.77 252.002 144.993C249.827 145.136 248.274 146.73 246.227 147.238C243.786 147.845 241.235 147.023 238.927 146.276C238.579 146.164 238.43 146.698 238.776 146.81Z" fill="#3F3D56"/>
<path d="M244.94 149.758C246.102 149.758 247.043 148.84 247.043 147.709C247.043 146.577 246.102 145.659 244.94 145.659C243.778 145.659 242.837 146.577 242.837 147.709C242.837 148.84 243.778 149.758 244.94 149.758Z" fill="#1FAD1C"/>
<path d="M263.098 149.849C264.26 149.849 265.202 148.931 265.202 147.799C265.202 146.667 264.26 145.75 263.098 145.75C261.937 145.75 260.995 146.667 260.995 147.799C260.995 148.931 261.937 149.849 263.098 149.849Z" fill="#1FAD1C"/>
<path d="M281.539 142.897C282.701 142.897 283.642 141.979 283.642 140.847C283.642 139.715 282.701 138.798 281.539 138.798C280.377 138.798 279.436 139.715 279.436 140.847C279.436 141.979 280.377 142.897 281.539 142.897Z" fill="#1FAD1C"/>
<path d="M159.488 211.951C153.269 229.204 161.193 242.796 159.548 234.028C158.174 226.7 181.59 204.402 188.639 209C188.491 208.256 184.011 194.84 183.572 194.778C184.186 193.27 183.33 193.256 183.295 192.483C183.162 189.5 183.874 186.403 185.26 183.215C186.169 180.753 186.184 178.637 185.304 176.931C184.546 175.528 183.273 174.456 181.74 173.929L177.121 168.494C175.918 167.079 174.143 164.027 172.258 164.038L162.137 163.686C161.848 163.517 158.294 166.494 154.834 167.956C151.081 169.542 151.855 173.871 151.865 173.926L151.874 173.978L151.915 174.015L157.431 189.835L162.415 194.386C162.163 195.1 162.226 195.635 162.699 195.943C162.02 196.432 159 211.069 159.488 211.582L159.488 211.951Z" fill="#1FAD1C"/>
<path d="M211.492 180.641C210.739 180.933 210.069 181.397 209.539 181.994L201.524 184.671L202.943 188.349L210.92 185.238C211.728 185.293 212.538 185.159 213.283 184.846C215.156 184.089 216.273 182.534 215.778 181.372C215.283 180.211 213.364 179.884 211.492 180.641Z" fill="#FFB6B6"/>
<path d="M168.739 168.836L187.022 192.883L208.454 187.132L207.522 181.684L191.203 184.696L182.098 171.058C179.125 165.459 173.265 164.331 168.739 168.835V168.836Z" fill="#1FAD1C"/>
<path d="M300.055 290.093H291.712C290.255 290.093 289.069 288.937 289.069 287.518C287.488 283.331 287.288 279.575 289.069 276.437C289.069 275.017 290.255 273.862 291.712 273.862C294.179 272.118 297.056 272.648 300.055 273.862C301.513 273.862 302.698 275.017 302.698 276.437C301.686 279.987 301.759 283.691 302.698 287.518C302.698 288.937 301.513 290.093 300.055 290.093Z" fill="#1FAD1C"/>
<path d="M299.249 278.794H292.51C292.277 278.794 292.089 278.61 292.089 278.383C292.089 278.157 292.277 277.973 292.51 277.973H299.249C299.481 277.973 299.67 278.157 299.67 278.383C299.67 278.61 299.481 278.794 299.249 278.794Z" fill="white"/>
<path d="M299.249 282.076H292.51C292.277 282.076 292.089 281.892 292.089 281.665C292.089 281.439 292.277 281.255 292.51 281.255H299.249C299.481 281.255 299.67 281.439 299.67 281.665C299.67 281.892 299.481 282.076 299.249 282.076Z" fill="white"/>
<path d="M299.249 285.358H292.51C292.277 285.358 292.089 285.175 292.089 284.948C292.089 284.721 292.277 284.538 292.51 284.538H299.249C299.481 284.538 299.67 284.721 299.67 284.948C299.67 285.175 299.481 285.358 299.249 285.358Z" fill="white"/>
<path d="M446.887 305.011H124.702V305.632H446.887V305.011Z" fill="#E6E6E6"/>
<path d="M376.157 222.131C376.431 224.708 378.017 226.659 379.7 226.49C381.383 226.32 382.526 224.093 382.252 221.516C382.157 220.484 381.81 219.49 381.24 218.616L379.939 207.709L374.698 208.412L376.537 219.088C376.163 220.058 376.032 221.1 376.156 222.128L376.157 222.131Z" fill="#FFB6B6"/>
<path d="M383.869 177.923L386.04 159.335C386.04 159.335 375.208 158.43 374.422 163.164C373.636 167.898 371.835 188.832 371.835 188.832L374.624 216.764L381.585 216.371L380.723 190.744L383.869 177.923Z" fill="#2F2E41"/>
<path d="M174.616 161.639L159.98 162.937L159.548 148.116L175.493 147.675L174.616 161.639Z" fill="#2F2E41"/>
<path d="M167.215 159.649C171.457 159.649 174.896 156.299 174.896 152.166C174.896 148.032 171.457 144.682 167.215 144.682C162.973 144.682 159.534 148.032 159.534 152.166C159.534 156.299 162.973 159.649 167.215 159.649Z" fill="#FFB6B6"/>
<path d="M173.394 144.873C173.34 143.016 170.968 142.815 169.121 142.357L167.445 141.51C165.8 141.102 164.056 141.389 162.639 142.3L158.172 144.937C156.166 146.228 155.847 148.314 155.031 150.517L153.555 153.743C152.752 155.912 153.813 158.786 154.625 160.952L154.965 161.859L154.433 164.829L163.743 164.406L164.571 159.82L162.982 158.08C162.418 157.462 162.372 156.545 162.872 155.877C164.67 153.474 164.336 150.107 164.336 150.107L166.612 151.316C168.106 151.515 169.439 151.493 170.611 151.254C171.9 150.992 172.995 150.467 173.901 149.685L174.712 152.343C174.921 155.651 174.286 156.53 171.26 159.766L176.567 163.012L176.371 161.256C175.904 157.076 177.328 153.78 177.128 150.379C176.99 148.027 175.554 145.931 173.394 144.873Z" fill="#2F2E41"/>
<path d="M174.665 207.978C173.915 207.679 173.103 207.559 172.296 207.629L164.623 204.128L163.02 207.734L170.976 210.897C171.518 211.484 172.196 211.936 172.954 212.215C174.841 212.938 176.754 212.577 177.226 211.407C177.698 210.236 176.552 208.702 174.665 207.978Z" fill="#FFB6B6"/>
<path d="M152.339 170.542L148.338 200.214L167.851 210.59L171.066 206.041L157.182 197.158L160.361 181.186C162.217 175.146 158.807 170.368 152.339 170.542L152.339 170.542Z" fill="#1FAD1C"/>
</g>
<rect y="17" width="159" height="54" rx="27" fill="#767676"/>
<rect y="315" width="163" height="54" rx="27" fill="#767676"/>
<defs>
<linearGradient id="paint0_linear_67_22" x1="351.103" y1="0" x2="351.103" y2="386" gradientUnits="userSpaceOnUse">
<stop offset="0.15625" stop-color="#383636"/>
<stop offset="1" stop-opacity="0"/>
</linearGradient>
<clipPath id="clip0_67_22">
<rect width="322.186" height="218.79" fill="white" transform="translate(124.702 87.2893)"/>
</clipPath>
</defs>
</svg>
